solid paddle
facet normal -0.0 -0.0 1.0
  outer loop
    vertex 1.0658780458714787 -2.265718907066445 0.2
    vertex 0.5858780458714787 -1.5357189070664452 0.2
    vertex 0.5858780458714787 -2.265718907066445 0.2
  endloop
endfacet
facet normal -0.0 -0.0 1.0
  outer loop
    vertex 0.5858780458714787 -1.5357189070664452 0.2
    vertex 1.0658780458714787 -2.265718907066445 0.2
    vertex 1.0658780458714787 -1.5357189070664452 0.2
  endloop
endfacet
facet normal -0.0 -0.0 1.0
  outer loop
    vertex 1.7158780458714786 -2.265718907066445 0.52
    vertex 1.0658780458714787 -1.5357189070664452 0.52
    vertex 1.0658780458714787 -2.265718907066445 0.52
  endloop
endfacet
facet normal -0.0 -0.0 1.0
  outer loop
    vertex 1.0658780458714787 -1.5357189070664452 0.52
    vertex 1.7158780458714786 -2.265718907066445 0.52
    vertex 1.7158780458714786 -1.5357189070664452 0.52
  endloop
endfacet
facet normal -1.0 -0.0 -0.0
  outer loop
    vertex 1.0658780458714787 -1.5357189070664452 0.52
    vertex 1.0658780458714787 -2.265718907066445 0.2
    vertex 1.0658780458714787 -2.265718907066445 0.52
  endloop
endfacet
facet normal -1.0 -0.0 -0.0
  outer loop
    vertex 1.0658780458714787 -2.265718907066445 0.2
    vertex 1.0658780458714787 -1.5357189070664452 0.52
    vertex 1.0658780458714787 -1.5357189070664452 0.2
  endloop
endfacet
facet normal 0.9914448613738094 -0.0 0.13052619222006032
  outer loop
    vertex 1.7658780458714787 -1.5357189070664452 0.47000000000000003
    vertex 1.764174337185932 -2.265718907066445 0.48294095225512607
    vertex 1.7658780458714787 -2.265718907066445 0.47000000000000003
  endloop
endfacet
facet normal 0.9914448613738094 -0.0 0.13052619222006032
  outer loop
    vertex 1.764174337185932 -2.265718907066445 0.48294095225512607
    vertex 1.7658780458714787 -1.5357189070664452 0.47000000000000003
    vertex 1.764174337185932 -1.5357189070664452 0.48294095225512607
  endloop
endfacet
facet normal 0.1305261922200519 -0.0 0.9914448613738105
  outer loop
    vertex 1.7288189981266047 -2.265718907066445 0.5182962913144534
    vertex 1.7158780458714786 -1.5357189070664452 0.52
    vertex 1.7158780458714786 -2.265718907066445 0.52
  endloop
endfacet
facet normal 0.1305261922200519 -0.0 0.9914448613738105
  outer loop
    vertex 1.7158780458714786 -1.5357189070664452 0.52
    vertex 1.7288189981266047 -2.265718907066445 0.5182962913144534
    vertex 1.7288189981266047 -1.5357189070664452 0.5182962913144534
  endloop
endfacet
facet normal 0.3826834323650884 0.0 0.9238795325112873
  outer loop
    vertex 1.7408780458714785 -2.265718907066445 0.513301270189222
    vertex 1.7288189981266047 -1.5357189070664452 0.5182962913144534
    vertex 1.7288189981266047 -2.265718907066445 0.5182962913144534
  endloop
endfacet
facet normal 0.3826834323650884 0.0 0.9238795325112873
  outer loop
    vertex 1.7288189981266047 -1.5357189070664452 0.5182962913144534
    vertex 1.7408780458714785 -2.265718907066445 0.513301270189222
    vertex 1.7408780458714785 -1.5357189070664452 0.513301270189222
  endloop
endfacet
facet normal 0.6087614290087228 0.0 0.7933533402912337
  outer loop
    vertex 1.751233384930806 -2.265718907066445 0.5053553390593274
    vertex 1.7408780458714785 -1.5357189070664452 0.513301270189222
    vertex 1.7408780458714785 -2.265718907066445 0.513301270189222
  endloop
endfacet
facet normal 0.6087614290087228 0.0 0.7933533402912337
  outer loop
    vertex 1.7408780458714785 -1.5357189070664452 0.513301270189222
    vertex 1.751233384930806 -2.265718907066445 0.5053553390593274
    vertex 1.751233384930806 -1.5357189070664452 0.5053553390593274
  endloop
endfacet
facet normal 0.7933533402912321 0.0 0.6087614290087247
  outer loop
    vertex 1.7591793160607005 -1.5357189070664452 0.49500000000000005
    vertex 1.751233384930806 -2.265718907066445 0.5053553390593274
    vertex 1.7591793160607005 -2.265718907066445 0.49500000000000005
  endloop
endfacet
facet normal 0.7933533402912321 0.0 0.6087614290087247
  outer loop
    vertex 1.751233384930806 -2.265718907066445 0.5053553390593274
    vertex 1.7591793160607005 -1.5357189070664452 0.49500000000000005
    vertex 1.751233384930806 -1.5357189070664452 0.5053553390593274
  endloop
endfacet
facet normal 0.9238795325112886 0.0 0.3826834323650854
  outer loop
    vertex 1.764174337185932 -1.5357189070664452 0.48294095225512607
    vertex 1.7591793160607005 -2.265718907066445 0.49500000000000005
    vertex 1.764174337185932 -2.265718907066445 0.48294095225512607
  endloop
endfacet
facet normal 0.9238795325112886 0.0 0.3826834323650854
  outer loop
    vertex 1.7591793160607005 -2.265718907066445 0.49500000000000005
    vertex 1.764174337185932 -1.5357189070664452 0.48294095225512607
    vertex 1.7591793160607005 -1.5357189070664452 0.49500000000000005
  endloop
endfacet
facet normal -0.1305261922200514 -0.0 0.9914448613738105
  outer loop
    vertex 1.5665835694796804 -2.265718907066445 0.27272593389687444
    vertex 1.5458780458714787 -1.535718907066446 0.2699999999999999
    vertex 1.5458780458714787 -2.265718907066445 0.2699999999999999
  endloop
endfacet
facet normal -0.1305261922200514 -0.0 0.9914448613738105
  outer loop
    vertex 1.5458780458714787 -1.535718907066446 0.2699999999999999
    vertex 1.5665835694796804 -2.265718907066445 0.27272593389687444
    vertex 1.5665835694796804 -1.535718907066446 0.27272593389687444
  endloop
endfacet
facet normal -0.38268343236508995 -0.0 0.9238795325112867
  outer loop
    vertex 1.5858780458714787 -2.265718907066445 0.28071796769724483
    vertex 1.5665835694796804 -1.535718907066446 0.27272593389687444
    vertex 1.5665835694796804 -2.265718907066445 0.27272593389687444
  endloop
endfacet
facet normal -0.38268343236508995 -0.0 0.9238795325112867
  outer loop
    vertex 1.5665835694796804 -1.535718907066446 0.27272593389687444
    vertex 1.5858780458714787 -2.265718907066445 0.28071796769724483
    vertex 1.5858780458714787 -1.535718907066446 0.28071796769724483
  endloop
endfacet
facet normal -0.608761429008722 -0.0 0.7933533402912342
  outer loop
    vertex 1.6024465883664025 -2.265718907066445 0.29343145750507615
    vertex 1.5858780458714787 -1.535718907066446 0.28071796769724483
    vertex 1.5858780458714787 -2.265718907066445 0.28071796769724483
  endloop
endfacet
facet normal -0.608761429008722 -0.0 0.7933533402912342
  outer loop
    vertex 1.5858780458714787 -1.535718907066446 0.28071796769724483
    vertex 1.6024465883664025 -2.265718907066445 0.29343145750507615
    vertex 1.6024465883664025 -1.535718907066446 0.29343145750507615
  endloop
endfacet
facet normal -0.7933533402912328 -0.0 0.6087614290087237
  outer loop
    vertex 1.615160078174234 -1.535718907066446 0.30999999999999994
    vertex 1.6024465883664025 -2.265718907066445 0.29343145750507615
    vertex 1.615160078174234 -2.265718907066445 0.30999999999999994
  endloop
endfacet
facet normal -0.7933533402912328 -0.0 0.6087614290087237
  outer loop
    vertex 1.6024465883664025 -2.265718907066445 0.29343145750507615
    vertex 1.615160078174234 -1.535718907066446 0.30999999999999994
    vertex 1.6024465883664025 -1.535718907066446 0.29343145750507615
  endloop
endfacet
facet normal -0.9238795325112885 -0.0 0.3826834323650854
  outer loop
    vertex 1.6231521119746042 -1.535718907066446 0.3292944763917983
    vertex 1.615160078174234 -2.265718907066445 0.30999999999999994
    vertex 1.6231521119746042 -2.265718907066445 0.3292944763917983
  endloop
endfacet
facet normal -0.9238795325112885 -0.0 0.3826834323650854
  outer loop
    vertex 1.615160078174234 -2.265718907066445 0.30999999999999994
    vertex 1.6231521119746042 -1.535718907066446 0.3292944763917983
    vertex 1.615160078174234 -1.535718907066446 0.30999999999999994
  endloop
endfacet
facet normal -0.9914448613738102 -0.0 0.13052619222005402
  outer loop
    vertex 1.6258780458714788 -1.535718907066446 0.35
    vertex 1.6231521119746042 -2.265718907066445 0.3292944763917983
    vertex 1.6258780458714788 -2.265718907066445 0.35
  endloop
endfacet
facet normal -0.9914448613738102 -0.0 0.13052619222005402
  outer loop
    vertex 1.6231521119746042 -2.265718907066445 0.3292944763917983
    vertex 1.6258780458714788 -1.535718907066446 0.35
    vertex 1.6231521119746042 -1.535718907066446 0.3292944763917983
  endloop
endfacet
facet normal -0.9914448613738102 -0.0 -0.13052619222005368
  outer loop
    vertex 1.6231521119746042 -1.535718907066446 0.3707055236082017
    vertex 1.6258780458714788 -2.265718907066445 0.35
    vertex 1.6231521119746042 -2.265718907066445 0.3707055236082017
  endloop
endfacet
facet normal -0.9914448613738102 -0.0 -0.13052619222005368
  outer loop
    vertex 1.6258780458714788 -2.265718907066445 0.35
    vertex 1.6231521119746042 -1.535718907066446 0.3707055236082017
    vertex 1.6258780458714788 -1.535718907066446 0.35
  endloop
endfacet
facet normal -0.9238795325112885 -0.0 -0.3826834323650854
  outer loop
    vertex 1.615160078174234 -1.535718907066446 0.39000000000000007
    vertex 1.6231521119746042 -2.265718907066445 0.3707055236082017
    vertex 1.615160078174234 -2.265718907066445 0.39000000000000007
  endloop
endfacet
facet normal -0.9238795325112885 -0.0 -0.3826834323650854
  outer loop
    vertex 1.6231521119746042 -2.265718907066445 0.3707055236082017
    vertex 1.615160078174234 -1.535718907066446 0.39000000000000007
    vertex 1.6231521119746042 -1.535718907066446 0.3707055236082017
  endloop
endfacet
facet normal -0.7933533402912328 -0.0 -0.6087614290087237
  outer loop
    vertex 1.6024465883664025 -1.535718907066446 0.40656854249492386
    vertex 1.615160078174234 -2.265718907066445 0.39000000000000007
    vertex 1.6024465883664025 -2.265718907066445 0.40656854249492386
  endloop
endfacet
facet normal -0.7933533402912328 -0.0 -0.6087614290087237
  outer loop
    vertex 1.615160078174234 -2.265718907066445 0.39000000000000007
    vertex 1.6024465883664025 -1.535718907066446 0.40656854249492386
    vertex 1.615160078174234 -1.535718907066446 0.39000000000000007
  endloop
endfacet
facet normal -0.608761429008722 -0.0 -0.7933533402912342
  outer loop
    vertex 1.6024465883664025 -1.535718907066446 0.40656854249492386
    vertex 1.5858780458714787 -2.265718907066445 0.4192820323027552
    vertex 1.5858780458714787 -1.535718907066446 0.4192820323027552
  endloop
endfacet
facet normal -0.608761429008722 -0.0 -0.7933533402912342
  outer loop
    vertex 1.5858780458714787 -2.265718907066445 0.4192820323027552
    vertex 1.6024465883664025 -1.535718907066446 0.40656854249492386
    vertex 1.6024465883664025 -2.265718907066445 0.40656854249492386
  endloop
endfacet
facet normal -0.3826834323650877 -0.0 -0.9238795325112877
  outer loop
    vertex 1.5858780458714787 -1.535718907066446 0.4192820323027552
    vertex 1.5665835694796804 -2.265718907066445 0.4272740661031255
    vertex 1.5665835694796804 -1.535718907066446 0.4272740661031255
  endloop
endfacet
facet normal -0.3826834323650877 -0.0 -0.9238795325112877
  outer loop
    vertex 1.5665835694796804 -2.265718907066445 0.4272740661031255
    vertex 1.5858780458714787 -1.535718907066446 0.4192820323027552
    vertex 1.5858780458714787 -2.265718907066445 0.4192820323027552
  endloop
endfacet
facet normal -0.1305261922200514 -0.0 -0.9914448613738105
  outer loop
    vertex 1.5665835694796804 -1.535718907066446 0.4272740661031255
    vertex 1.5458780458714787 -2.265718907066445 0.43000000000000005
    vertex 1.5458780458714787 -1.535718907066446 0.43000000000000005
  endloop
endfacet
facet normal -0.1305261922200514 -0.0 -0.9914448613738105
  outer loop
    vertex 1.5458780458714787 -2.265718907066445 0.43000000000000005
    vertex 1.5665835694796804 -1.535718907066446 0.4272740661031255
    vertex 1.5665835694796804 -2.265718907066445 0.4272740661031255
  endloop
endfacet
facet normal 0.13052619222005402 -0.0 -0.9914448613738102
  outer loop
    vertex 1.5458780458714787 -1.535718907066446 0.43000000000000005
    vertex 1.525172522263277 -2.265718907066445 0.42727406610312546
    vertex 1.525172522263277 -1.535718907066446 0.42727406610312546
  endloop
endfacet
facet normal 0.13052619222005402 -0.0 -0.9914448613738102
  outer loop
    vertex 1.525172522263277 -2.265718907066445 0.42727406610312546
    vertex 1.5458780458714787 -1.535718907066446 0.43000000000000005
    vertex 1.5458780458714787 -2.265718907066445 0.43000000000000005
  endloop
endfacet
facet normal 0.3826834323650877 -0.0 -0.9238795325112877
  outer loop
    vertex 1.525172522263277 -1.535718907066446 0.42727406610312546
    vertex 1.5058780458714787 -2.265718907066445 0.4192820323027551
    vertex 1.5058780458714787 -1.535718907066446 0.4192820323027551
  endloop
endfacet
facet normal 0.3826834323650877 -0.0 -0.9238795325112877
  outer loop
    vertex 1.5058780458714787 -2.265718907066445 0.4192820323027551
    vertex 1.525172522263277 -1.535718907066446 0.42727406610312546
    vertex 1.525172522263277 -2.265718907066445 0.42727406610312546
  endloop
endfacet
facet normal 0.608761429008722 -0.0 -0.7933533402912342
  outer loop
    vertex 1.5058780458714787 -1.535718907066446 0.4192820323027551
    vertex 1.4893095033765549 -2.265718907066445 0.4065685424949238
    vertex 1.4893095033765549 -1.535718907066446 0.4065685424949238
  endloop
endfacet
facet normal 0.608761429008722 -0.0 -0.7933533402912342
  outer loop
    vertex 1.4893095033765549 -2.265718907066445 0.4065685424949238
    vertex 1.5058780458714787 -1.535718907066446 0.4192820323027551
    vertex 1.5058780458714787 -2.265718907066445 0.4192820323027551
  endloop
endfacet
facet normal 0.7933533402912328 -0.0 -0.6087614290087237
  outer loop
    vertex 1.4765960135687235 -1.535718907066446 0.39
    vertex 1.4893095033765549 -2.265718907066445 0.4065685424949238
    vertex 1.4765960135687235 -2.265718907066445 0.39
  endloop
endfacet
facet normal 0.7933533402912328 -0.0 -0.6087614290087237
  outer loop
    vertex 1.4893095033765549 -2.265718907066445 0.4065685424949238
    vertex 1.4765960135687235 -1.535718907066446 0.39
    vertex 1.4893095033765549 -1.535718907066446 0.4065685424949238
  endloop
endfacet
facet normal 0.9238795325112885 -0.0 -0.3826834323650854
  outer loop
    vertex 1.4686039797683532 -1.535718907066446 0.37070552360820164
    vertex 1.4765960135687235 -2.265718907066445 0.39
    vertex 1.4686039797683532 -2.265718907066445 0.37070552360820164
  endloop
endfacet
facet normal 0.9238795325112885 -0.0 -0.3826834323650854
  outer loop
    vertex 1.4765960135687235 -2.265718907066445 0.39
    vertex 1.4686039797683532 -1.535718907066446 0.37070552360820164
    vertex 1.4765960135687235 -1.535718907066446 0.39
  endloop
endfacet
facet normal 0.9914448613738102 -0.0 -0.13052619222005402
  outer loop
    vertex 1.4658780458714786 -1.535718907066446 0.35
    vertex 1.4686039797683532 -2.265718907066445 0.37070552360820164
    vertex 1.4658780458714786 -2.265718907066445 0.35
  endloop
endfacet
facet normal 0.9914448613738102 -0.0 -0.13052619222005402
  outer loop
    vertex 1.4686039797683532 -2.265718907066445 0.37070552360820164
    vertex 1.4658780458714786 -1.535718907066446 0.35
    vertex 1.4686039797683532 -1.535718907066446 0.37070552360820164
  endloop
endfacet
facet normal 0.9914448613738102 0.0 0.13052619222005368
  outer loop
    vertex 1.4686039797683532 -1.535718907066446 0.32929447639179826
    vertex 1.4658780458714786 -2.265718907066445 0.35
    vertex 1.4686039797683532 -2.265718907066445 0.32929447639179826
  endloop
endfacet
facet normal 0.9914448613738102 0.0 0.13052619222005368
  outer loop
    vertex 1.4658780458714786 -2.265718907066445 0.35
    vertex 1.4686039797683532 -1.535718907066446 0.32929447639179826
    vertex 1.4658780458714786 -1.535718907066446 0.35
  endloop
endfacet
facet normal 0.9238795325112882 0.0 0.38268343236508634
  outer loop
    vertex 1.4765960135687235 -1.535718907066446 0.30999999999999994
    vertex 1.4686039797683532 -2.265718907066445 0.32929447639179826
    vertex 1.4765960135687235 -2.265718907066445 0.30999999999999994
  endloop
endfacet
facet normal 0.9238795325112882 0.0 0.38268343236508634
  outer loop
    vertex 1.4686039797683532 -2.265718907066445 0.32929447639179826
    vertex 1.4765960135687235 -1.535718907066446 0.30999999999999994
    vertex 1.4686039797683532 -1.535718907066446 0.32929447639179826
  endloop
endfacet
facet normal 0.7933533402912339 0.0 0.6087614290087224
  outer loop
    vertex 1.4893095033765549 -1.535718907066446 0.2934314575050761
    vertex 1.4765960135687235 -2.265718907066445 0.30999999999999994
    vertex 1.4893095033765549 -2.265718907066445 0.2934314575050761
  endloop
endfacet
facet normal 0.7933533402912339 0.0 0.6087614290087224
  outer loop
    vertex 1.4765960135687235 -2.265718907066445 0.30999999999999994
    vertex 1.4893095033765549 -1.535718907066446 0.2934314575050761
    vertex 1.4765960135687235 -1.535718907066446 0.30999999999999994
  endloop
endfacet
facet normal 0.6087614290087203 0.0 0.7933533402912354
  outer loop
    vertex 1.5058780458714787 -2.265718907066445 0.28071796769724483
    vertex 1.4893095033765549 -1.535718907066446 0.2934314575050761
    vertex 1.4893095033765549 -2.265718907066445 0.2934314575050761
  endloop
endfacet
facet normal 0.6087614290087203 0.0 0.7933533402912354
  outer loop
    vertex 1.4893095033765549 -1.535718907066446 0.2934314575050761
    vertex 1.5058780458714787 -2.265718907066445 0.28071796769724483
    vertex 1.5058780458714787 -1.535718907066446 0.28071796769724483
  endloop
endfacet
facet normal 0.38268343236508995 0.0 0.9238795325112867
  outer loop
    vertex 1.525172522263277 -2.265718907066445 0.27272593389687444
    vertex 1.5058780458714787 -1.535718907066446 0.28071796769724483
    vertex 1.5058780458714787 -2.265718907066445 0.28071796769724483
  endloop
endfacet
facet normal 0.38268343236508995 0.0 0.9238795325112867
  outer loop
    vertex 1.5058780458714787 -1.535718907066446 0.28071796769724483
    vertex 1.525172522263277 -2.265718907066445 0.27272593389687444
    vertex 1.525172522263277 -1.535718907066446 0.27272593389687444
  endloop
endfacet
facet normal 0.1305261922200514 0.0 0.9914448613738105
  outer loop
    vertex 1.5458780458714787 -2.265718907066445 0.2699999999999999
    vertex 1.525172522263277 -1.535718907066446 0.27272593389687444
    vertex 1.525172522263277 -2.265718907066445 0.27272593389687444
  endloop
endfacet
facet normal 0.1305261922200514 0.0 0.9914448613738105
  outer loop
    vertex 1.525172522263277 -1.535718907066446 0.27272593389687444
    vertex 1.5458780458714787 -2.265718907066445 0.2699999999999999
    vertex 1.5458780458714787 -1.535718907066446 0.2699999999999999
  endloop
endfacet
facet normal 0.7071067811865472 -0.0 -0.7071067811865479
  outer loop
    vertex 1.7658780458714787 -1.5357189070664452 0.05
    vertex 1.7158780458714786 -2.2157189070664454 0.0
    vertex 1.7158780458714786 -1.5857189070664455 0.0
  endloop
endfacet
facet normal 0.7071067811865472 -0.0 -0.7071067811865479
  outer loop
    vertex 1.7158780458714786 -2.2157189070664454 0.0
    vertex 1.7658780458714787 -1.5357189070664452 0.05
    vertex 1.7658780458714787 -2.265718907066445 0.05
  endloop
endfacet
facet normal -0.0 0.7071067811865457 -0.7071067811865493
  outer loop
    vertex 1.7658780458714787 -1.5357189070664452 0.05
    vertex 0.635878045871479 -1.5857189070664455 0.0
    vertex 0.5858780458714787 -1.5357189070664452 0.05
  endloop
endfacet
facet normal -0.0 0.7071067811865457 -0.7071067811865493
  outer loop
    vertex 0.635878045871479 -1.5857189070664455 0.0
    vertex 1.7658780458714787 -1.5357189070664452 0.05
    vertex 1.7158780458714786 -1.5857189070664455 0.0
  endloop
endfacet
facet normal -0.7071067811865457 -0.0 -0.7071067811865495
  outer loop
    vertex 0.635878045871479 -1.5857189070664455 0.0
    vertex 0.5858780458714787 -2.265718907066445 0.05
    vertex 0.5858780458714787 -1.5357189070664452 0.05
  endloop
endfacet
facet normal -0.7071067811865457 -0.0 -0.7071067811865495
  outer loop
    vertex 0.5858780458714787 -2.265718907066445 0.05
    vertex 0.635878045871479 -1.5857189070664455 0.0
    vertex 0.635878045871479 -2.215718907066445 0.0
  endloop
endfacet
facet normal -1.148738961135314e-16 -0.7071067811865474 -0.7071067811865477
  outer loop
    vertex 0.635878045871479 -2.215718907066445 0.0
    vertex 1.7158780458714786 -2.265718907066445 0.05
    vertex 0.5858780458714787 -2.265718907066445 0.05
  endloop
endfacet
facet normal -1.148738961135314e-16 -0.7071067811865474 -0.7071067811865477
  outer loop
    vertex 1.7158780458714786 -2.265718907066445 0.05
    vertex 0.635878045871479 -2.215718907066445 0.0
    vertex 1.7158780458714786 -2.2157189070664454 0.0
  endloop
endfacet
facet normal -1.148738961135314e-16 -0.7071067811865474 -0.7071067811865477
  outer loop
    vertex 1.7158780458714786 -2.265718907066445 0.05
    vertex 1.7158780458714786 -2.2157189070664454 0.0
    vertex 1.7658780458714787 -2.265718907066445 0.05
  endloop
endfacet
facet normal 1.0 -0.0 -0.0
  outer loop
    vertex 1.7658780458714787 -1.5357189070664452 0.05
    vertex 1.7658780458714787 -2.265718907066445 0.47000000000000003
    vertex 1.7658780458714787 -2.265718907066445 0.05
  endloop
endfacet
facet normal 1.0 -0.0 -0.0
  outer loop
    vertex 1.7658780458714787 -2.265718907066445 0.47000000000000003
    vertex 1.7658780458714787 -1.5357189070664452 0.05
    vertex 1.7658780458714787 -1.5357189070664452 0.47000000000000003
  endloop
endfacet
facet normal 0.0 0.0 -1.0
  outer loop
    vertex 1.7158780458714786 -1.5857189070664455 0.0
    vertex 0.635878045871479 -2.215718907066445 0.0
    vertex 0.635878045871479 -1.5857189070664455 0.0
  endloop
endfacet
facet normal 0.0 0.0 -1.0
  outer loop
    vertex 0.635878045871479 -2.215718907066445 0.0
    vertex 1.7158780458714786 -1.5857189070664455 0.0
    vertex 1.7158780458714786 -2.2157189070664454 0.0
  endloop
endfacet
facet normal 0.0 -1.0 0.0
  outer loop
    vertex 1.7658780458714787 -2.265718907066445 0.47000000000000003
    vertex 1.7158780458714786 -2.265718907066445 0.05
    vertex 1.7658780458714787 -2.265718907066445 0.05
  endloop
endfacet
facet normal 0.0 -1.0 0.0
  outer loop
    vertex 1.7158780458714786 -2.265718907066445 0.05
    vertex 1.7658780458714787 -2.265718907066445 0.47000000000000003
    vertex 1.6024465883664025 -2.265718907066445 0.29343145750507615
  endloop
endfacet
facet normal 0.0 -1.0 0.0
  outer loop
    vertex 1.7158780458714786 -2.265718907066445 0.05
    vertex 1.6024465883664025 -2.265718907066445 0.29343145750507615
    vertex 1.5858780458714787 -2.265718907066445 0.28071796769724483
  endloop
endfacet
facet normal 0.0 -1.0 0.0
  outer loop
    vertex 1.7158780458714786 -2.265718907066445 0.05
    vertex 1.5858780458714787 -2.265718907066445 0.28071796769724483
    vertex 1.5665835694796804 -2.265718907066445 0.27272593389687444
  endloop
endfacet
facet normal 0.0 -1.0 0.0
  outer loop
    vertex 1.7158780458714786 -2.265718907066445 0.05
    vertex 1.5665835694796804 -2.265718907066445 0.27272593389687444
    vertex 0.5858780458714787 -2.265718907066445 0.05
  endloop
endfacet
facet normal 0.0 -1.0 0.0
  outer loop
    vertex 0.5858780458714787 -2.265718907066445 0.05
    vertex 1.5665835694796804 -2.265718907066445 0.27272593389687444
    vertex 1.0658780458714787 -2.265718907066445 0.2
  endloop
endfacet
facet normal 0.0 -1.0 0.0
  outer loop
    vertex 1.0658780458714787 -2.265718907066445 0.2
    vertex 1.5665835694796804 -2.265718907066445 0.27272593389687444
    vertex 1.5458780458714787 -2.265718907066445 0.2699999999999999
  endloop
endfacet
facet normal 0.0 -1.0 0.0
  outer loop
    vertex 1.6024465883664025 -2.265718907066445 0.29343145750507615
    vertex 1.7658780458714787 -2.265718907066445 0.47000000000000003
    vertex 1.615160078174234 -2.265718907066445 0.30999999999999994
  endloop
endfacet
facet normal 0.0 -1.0 0.0
  outer loop
    vertex 1.615160078174234 -2.265718907066445 0.30999999999999994
    vertex 1.7658780458714787 -2.265718907066445 0.47000000000000003
    vertex 1.6231521119746042 -2.265718907066445 0.3292944763917983
  endloop
endfacet
facet normal 0.0 -1.0 0.0
  outer loop
    vertex 1.6231521119746042 -2.265718907066445 0.3292944763917983
    vertex 1.7658780458714787 -2.265718907066445 0.47000000000000003
    vertex 1.6258780458714788 -2.265718907066445 0.35
  endloop
endfacet
facet normal 0.0 -1.0 0.0
  outer loop
    vertex 1.6258780458714788 -2.265718907066445 0.35
    vertex 1.7658780458714787 -2.265718907066445 0.47000000000000003
    vertex 1.6231521119746042 -2.265718907066445 0.3707055236082017
  endloop
endfacet
facet normal 0.0 -1.0 0.0
  outer loop
    vertex 1.6231521119746042 -2.265718907066445 0.3707055236082017
    vertex 1.7658780458714787 -2.265718907066445 0.47000000000000003
    vertex 1.615160078174234 -2.265718907066445 0.39000000000000007
  endloop
endfacet
facet normal 0.0 -1.0 0.0
  outer loop
    vertex 1.615160078174234 -2.265718907066445 0.39000000000000007
    vertex 1.7658780458714787 -2.265718907066445 0.47000000000000003
    vertex 1.6024465883664025 -2.265718907066445 0.40656854249492386
  endloop
endfacet
facet normal 0.0 -1.0 0.0
  outer loop
    vertex 1.6024465883664025 -2.265718907066445 0.40656854249492386
    vertex 1.7658780458714787 -2.265718907066445 0.47000000000000003
    vertex 1.5858780458714787 -2.265718907066445 0.4192820323027552
  endloop
endfacet
facet normal 0.0 -1.0 0.0
  outer loop
    vertex 1.5858780458714787 -2.265718907066445 0.4192820323027552
    vertex 1.7658780458714787 -2.265718907066445 0.47000000000000003
    vertex 1.5665835694796804 -2.265718907066445 0.4272740661031255
  endloop
endfacet
facet normal 0.0 -1.0 0.0
  outer loop
    vertex 1.5665835694796804 -2.265718907066445 0.4272740661031255
    vertex 1.7658780458714787 -2.265718907066445 0.47000000000000003
    vertex 1.5458780458714787 -2.265718907066445 0.43000000000000005
  endloop
endfacet
facet normal 0.0 -1.0 0.0
  outer loop
    vertex 1.0658780458714787 -2.265718907066445 0.2
    vertex 1.5058780458714787 -2.265718907066445 0.28071796769724483
    vertex 1.0658780458714787 -2.265718907066445 0.52
  endloop
endfacet
facet normal 0.0 -1.0 0.0
  outer loop
    vertex 1.5058780458714787 -2.265718907066445 0.28071796769724483
    vertex 1.0658780458714787 -2.265718907066445 0.2
    vertex 1.525172522263277 -2.265718907066445 0.27272593389687444
  endloop
endfacet
facet normal 0.0 -1.0 0.0
  outer loop
    vertex 1.525172522263277 -2.265718907066445 0.27272593389687444
    vertex 1.0658780458714787 -2.265718907066445 0.2
    vertex 1.5458780458714787 -2.265718907066445 0.2699999999999999
  endloop
endfacet
facet normal 0.0 -1.0 0.0
  outer loop
    vertex 1.0658780458714787 -2.265718907066445 0.52
    vertex 1.5058780458714787 -2.265718907066445 0.28071796769724483
    vertex 1.4893095033765549 -2.265718907066445 0.2934314575050761
  endloop
endfacet
facet normal 0.0 -1.0 0.0
  outer loop
    vertex 1.0658780458714787 -2.265718907066445 0.52
    vertex 1.4893095033765549 -2.265718907066445 0.2934314575050761
    vertex 1.4765960135687235 -2.265718907066445 0.30999999999999994
  endloop
endfacet
facet normal 0.0 -1.0 0.0
  outer loop
    vertex 1.0658780458714787 -2.265718907066445 0.52
    vertex 1.4765960135687235 -2.265718907066445 0.30999999999999994
    vertex 1.4686039797683532 -2.265718907066445 0.32929447639179826
  endloop
endfacet
facet normal 0.0 -1.0 0.0
  outer loop
    vertex 1.0658780458714787 -2.265718907066445 0.52
    vertex 1.4686039797683532 -2.265718907066445 0.32929447639179826
    vertex 1.4658780458714786 -2.265718907066445 0.35
  endloop
endfacet
facet normal 0.0 -1.0 0.0
  outer loop
    vertex 1.0658780458714787 -2.265718907066445 0.52
    vertex 1.4658780458714786 -2.265718907066445 0.35
    vertex 1.4686039797683532 -2.265718907066445 0.37070552360820164
  endloop
endfacet
facet normal 0.0 -1.0 0.0
  outer loop
    vertex 1.0658780458714787 -2.265718907066445 0.52
    vertex 1.4686039797683532 -2.265718907066445 0.37070552360820164
    vertex 1.4765960135687235 -2.265718907066445 0.39
  endloop
endfacet
facet normal 0.0 -1.0 0.0
  outer loop
    vertex 1.0658780458714787 -2.265718907066445 0.52
    vertex 1.4765960135687235 -2.265718907066445 0.39
    vertex 1.4893095033765549 -2.265718907066445 0.4065685424949238
  endloop
endfacet
facet normal 0.0 -1.0 0.0
  outer loop
    vertex 1.0658780458714787 -2.265718907066445 0.52
    vertex 1.4893095033765549 -2.265718907066445 0.4065685424949238
    vertex 1.5058780458714787 -2.265718907066445 0.4192820323027551
  endloop
endfacet
facet normal 0.0 -1.0 0.0
  outer loop
    vertex 1.0658780458714787 -2.265718907066445 0.52
    vertex 1.5058780458714787 -2.265718907066445 0.4192820323027551
    vertex 1.525172522263277 -2.265718907066445 0.42727406610312546
  endloop
endfacet
facet normal 0.0 -1.0 0.0
  outer loop
    vertex 1.0658780458714787 -2.265718907066445 0.52
    vertex 1.525172522263277 -2.265718907066445 0.42727406610312546
    vertex 1.5458780458714787 -2.265718907066445 0.43000000000000005
  endloop
endfacet
facet normal 0.0 -1.0 0.0
  outer loop
    vertex 1.0658780458714787 -2.265718907066445 0.52
    vertex 1.5458780458714787 -2.265718907066445 0.43000000000000005
    vertex 1.7658780458714787 -2.265718907066445 0.47000000000000003
  endloop
endfacet
facet normal 0.0 -1.0 0.0
  outer loop
    vertex 1.0658780458714787 -2.265718907066445 0.52
    vertex 1.7658780458714787 -2.265718907066445 0.47000000000000003
    vertex 1.764174337185932 -2.265718907066445 0.48294095225512607
  endloop
endfacet
facet normal 0.0 -1.0 0.0
  outer loop
    vertex 1.0658780458714787 -2.265718907066445 0.52
    vertex 1.764174337185932 -2.265718907066445 0.48294095225512607
    vertex 1.7591793160607005 -2.265718907066445 0.49500000000000005
  endloop
endfacet
facet normal 0.0 -1.0 0.0
  outer loop
    vertex 1.0658780458714787 -2.265718907066445 0.52
    vertex 1.7591793160607005 -2.265718907066445 0.49500000000000005
    vertex 1.751233384930806 -2.265718907066445 0.5053553390593274
  endloop
endfacet
facet normal 0.0 -1.0 0.0
  outer loop
    vertex 1.0658780458714787 -2.265718907066445 0.52
    vertex 1.751233384930806 -2.265718907066445 0.5053553390593274
    vertex 1.7408780458714785 -2.265718907066445 0.513301270189222
  endloop
endfacet
facet normal 0.0 -1.0 0.0
  outer loop
    vertex 1.0658780458714787 -2.265718907066445 0.52
    vertex 1.7408780458714785 -2.265718907066445 0.513301270189222
    vertex 1.7288189981266047 -2.265718907066445 0.5182962913144534
  endloop
endfacet
facet normal 0.0 -1.0 0.0
  outer loop
    vertex 1.0658780458714787 -2.265718907066445 0.52
    vertex 1.7288189981266047 -2.265718907066445 0.5182962913144534
    vertex 1.7158780458714786 -2.265718907066445 0.52
  endloop
endfacet
facet normal 0.0 -1.0 0.0
  outer loop
    vertex 0.5858780458714787 -2.265718907066445 0.2
    vertex 0.5858780458714787 -2.265718907066445 0.05
    vertex 1.0658780458714787 -2.265718907066445 0.2
  endloop
endfacet
facet normal -1.0 0.0 0.0
  outer loop
    vertex 0.5858780458714787 -1.5357189070664452 0.2
    vertex 0.5858780458714787 -2.265718907066445 0.05
    vertex 0.5858780458714787 -2.265718907066445 0.2
  endloop
endfacet
facet normal -1.0 0.0 0.0
  outer loop
    vertex 0.5858780458714787 -2.265718907066445 0.05
    vertex 0.5858780458714787 -1.5357189070664452 0.2
    vertex 0.5858780458714787 -1.5357189070664452 0.05
  endloop
endfacet
facet normal -0.0 1.0 -0.0
  outer loop
    vertex 1.0658780458714787 -1.5357189070664452 0.2
    vertex 1.525172522263277 -1.535718907066446 0.27272593389687444
    vertex 1.5458780458714787 -1.535718907066446 0.2699999999999999
  endloop
endfacet
facet normal -0.0 1.0 -0.0
  outer loop
    vertex 1.525172522263277 -1.535718907066446 0.27272593389687444
    vertex 1.0658780458714787 -1.5357189070664452 0.2
    vertex 1.5058780458714787 -1.535718907066446 0.28071796769724483
  endloop
endfacet
facet normal -0.0 1.0 -0.0
  outer loop
    vertex 1.5058780458714787 -1.535718907066446 0.28071796769724483
    vertex 1.0658780458714787 -1.5357189070664452 0.2
    vertex 1.0658780458714787 -1.5357189070664452 0.52
  endloop
endfacet
facet normal -0.0 1.0 -0.0
  outer loop
    vertex 1.5058780458714787 -1.535718907066446 0.28071796769724483
    vertex 1.0658780458714787 -1.5357189070664452 0.52
    vertex 1.4893095033765549 -1.535718907066446 0.2934314575050761
  endloop
endfacet
facet normal -0.0 1.0 -0.0
  outer loop
    vertex 1.4893095033765549 -1.535718907066446 0.2934314575050761
    vertex 1.0658780458714787 -1.5357189070664452 0.52
    vertex 1.4765960135687235 -1.535718907066446 0.30999999999999994
  endloop
endfacet
facet normal -0.0 1.0 -0.0
  outer loop
    vertex 1.4765960135687235 -1.535718907066446 0.30999999999999994
    vertex 1.0658780458714787 -1.5357189070664452 0.52
    vertex 1.4686039797683532 -1.535718907066446 0.32929447639179826
  endloop
endfacet
facet normal -0.0 1.0 -0.0
  outer loop
    vertex 1.4686039797683532 -1.535718907066446 0.32929447639179826
    vertex 1.0658780458714787 -1.5357189070664452 0.52
    vertex 1.4658780458714786 -1.535718907066446 0.35
  endloop
endfacet
facet normal -0.0 1.0 -0.0
  outer loop
    vertex 1.4658780458714786 -1.535718907066446 0.35
    vertex 1.0658780458714787 -1.5357189070664452 0.52
    vertex 1.4686039797683532 -1.535718907066446 0.37070552360820164
  endloop
endfacet
facet normal -0.0 1.0 -0.0
  outer loop
    vertex 1.4686039797683532 -1.535718907066446 0.37070552360820164
    vertex 1.0658780458714787 -1.5357189070664452 0.52
    vertex 1.4765960135687235 -1.535718907066446 0.39
  endloop
endfacet
facet normal -0.0 1.0 -0.0
  outer loop
    vertex 1.4765960135687235 -1.535718907066446 0.39
    vertex 1.0658780458714787 -1.5357189070664452 0.52
    vertex 1.4893095033765549 -1.535718907066446 0.4065685424949238
  endloop
endfacet
facet normal -0.0 1.0 -0.0
  outer loop
    vertex 1.4893095033765549 -1.535718907066446 0.4065685424949238
    vertex 1.0658780458714787 -1.5357189070664452 0.52
    vertex 1.5058780458714787 -1.535718907066446 0.4192820323027551
  endloop
endfacet
facet normal -0.0 1.0 -0.0
  outer loop
    vertex 1.5058780458714787 -1.535718907066446 0.4192820323027551
    vertex 1.0658780458714787 -1.5357189070664452 0.52
    vertex 1.525172522263277 -1.535718907066446 0.42727406610312546
  endloop
endfacet
facet normal -0.0 1.0 -0.0
  outer loop
    vertex 1.525172522263277 -1.535718907066446 0.42727406610312546
    vertex 1.0658780458714787 -1.5357189070664452 0.52
    vertex 1.5458780458714787 -1.535718907066446 0.43000000000000005
  endloop
endfacet
facet normal -0.0 1.0 -0.0
  outer loop
    vertex 1.5458780458714787 -1.535718907066446 0.43000000000000005
    vertex 1.0658780458714787 -1.5357189070664452 0.52
    vertex 1.7658780458714787 -1.5357189070664452 0.47000000000000003
  endloop
endfacet
facet normal -0.0 1.0 -0.0
  outer loop
    vertex 1.7658780458714787 -1.5357189070664452 0.47000000000000003
    vertex 1.0658780458714787 -1.5357189070664452 0.52
    vertex 1.764174337185932 -1.5357189070664452 0.48294095225512607
  endloop
endfacet
facet normal -0.0 1.0 -0.0
  outer loop
    vertex 1.764174337185932 -1.5357189070664452 0.48294095225512607
    vertex 1.0658780458714787 -1.5357189070664452 0.52
    vertex 1.7591793160607005 -1.5357189070664452 0.49500000000000005
  endloop
endfacet
facet normal -0.0 1.0 -0.0
  outer loop
    vertex 1.7591793160607005 -1.5357189070664452 0.49500000000000005
    vertex 1.0658780458714787 -1.5357189070664452 0.52
    vertex 1.751233384930806 -1.5357189070664452 0.5053553390593274
  endloop
endfacet
facet normal -0.0 1.0 -0.0
  outer loop
    vertex 1.751233384930806 -1.5357189070664452 0.5053553390593274
    vertex 1.0658780458714787 -1.5357189070664452 0.52
    vertex 1.7408780458714785 -1.5357189070664452 0.513301270189222
  endloop
endfacet
facet normal -0.0 1.0 -0.0
  outer loop
    vertex 1.7408780458714785 -1.5357189070664452 0.513301270189222
    vertex 1.0658780458714787 -1.5357189070664452 0.52
    vertex 1.7288189981266047 -1.5357189070664452 0.5182962913144534
  endloop
endfacet
facet normal -0.0 1.0 -0.0
  outer loop
    vertex 1.7288189981266047 -1.5357189070664452 0.5182962913144534
    vertex 1.0658780458714787 -1.5357189070664452 0.52
    vertex 1.7158780458714786 -1.5357189070664452 0.52
  endloop
endfacet
facet normal -0.0 1.0 -0.0
  outer loop
    vertex 0.5858780458714787 -1.5357189070664452 0.2
    vertex 1.7658780458714787 -1.5357189070664452 0.05
    vertex 0.5858780458714787 -1.5357189070664452 0.05
  endloop
endfacet
facet normal -0.0 1.0 -0.0
  outer loop
    vertex 1.7658780458714787 -1.5357189070664452 0.05
    vertex 0.5858780458714787 -1.5357189070664452 0.2
    vertex 1.0658780458714787 -1.5357189070664452 0.2
  endloop
endfacet
facet normal -0.0 1.0 -0.0
  outer loop
    vertex 1.7658780458714787 -1.5357189070664452 0.05
    vertex 1.0658780458714787 -1.5357189070664452 0.2
    vertex 1.5665835694796804 -1.535718907066446 0.27272593389687444
  endloop
endfacet
facet normal -0.0 1.0 -0.0
  outer loop
    vertex 1.7658780458714787 -1.5357189070664452 0.05
    vertex 1.5665835694796804 -1.535718907066446 0.27272593389687444
    vertex 1.5858780458714787 -1.535718907066446 0.28071796769724483
  endloop
endfacet
facet normal -0.0 1.0 -0.0
  outer loop
    vertex 1.7658780458714787 -1.5357189070664452 0.05
    vertex 1.5858780458714787 -1.535718907066446 0.28071796769724483
    vertex 1.6024465883664025 -1.535718907066446 0.29343145750507615
  endloop
endfacet
facet normal -0.0 1.0 -0.0
  outer loop
    vertex 1.7658780458714787 -1.5357189070664452 0.05
    vertex 1.6024465883664025 -1.535718907066446 0.29343145750507615
    vertex 1.7658780458714787 -1.5357189070664452 0.47000000000000003
  endloop
endfacet
facet normal -0.0 1.0 -0.0
  outer loop
    vertex 1.5665835694796804 -1.535718907066446 0.27272593389687444
    vertex 1.0658780458714787 -1.5357189070664452 0.2
    vertex 1.5458780458714787 -1.535718907066446 0.2699999999999999
  endloop
endfacet
facet normal -0.0 1.0 -0.0
  outer loop
    vertex 1.7658780458714787 -1.5357189070664452 0.47000000000000003
    vertex 1.6024465883664025 -1.535718907066446 0.29343145750507615
    vertex 1.615160078174234 -1.535718907066446 0.30999999999999994
  endloop
endfacet
facet normal -0.0 1.0 -0.0
  outer loop
    vertex 1.7658780458714787 -1.5357189070664452 0.47000000000000003
    vertex 1.615160078174234 -1.535718907066446 0.30999999999999994
    vertex 1.6231521119746042 -1.535718907066446 0.3292944763917983
  endloop
endfacet
facet normal -0.0 1.0 -0.0
  outer loop
    vertex 1.7658780458714787 -1.5357189070664452 0.47000000000000003
    vertex 1.6231521119746042 -1.535718907066446 0.3292944763917983
    vertex 1.6258780458714788 -1.535718907066446 0.35
  endloop
endfacet
facet normal -0.0 1.0 -0.0
  outer loop
    vertex 1.7658780458714787 -1.5357189070664452 0.47000000000000003
    vertex 1.6258780458714788 -1.535718907066446 0.35
    vertex 1.6231521119746042 -1.535718907066446 0.3707055236082017
  endloop
endfacet
facet normal -0.0 1.0 -0.0
  outer loop
    vertex 1.7658780458714787 -1.5357189070664452 0.47000000000000003
    vertex 1.6231521119746042 -1.535718907066446 0.3707055236082017
    vertex 1.615160078174234 -1.535718907066446 0.39000000000000007
  endloop
endfacet
facet normal -0.0 1.0 -0.0
  outer loop
    vertex 1.7658780458714787 -1.5357189070664452 0.47000000000000003
    vertex 1.615160078174234 -1.535718907066446 0.39000000000000007
    vertex 1.6024465883664025 -1.535718907066446 0.40656854249492386
  endloop
endfacet
facet normal -0.0 1.0 -0.0
  outer loop
    vertex 1.7658780458714787 -1.5357189070664452 0.47000000000000003
    vertex 1.6024465883664025 -1.535718907066446 0.40656854249492386
    vertex 1.5858780458714787 -1.535718907066446 0.4192820323027552
  endloop
endfacet
facet normal -0.0 1.0 -0.0
  outer loop
    vertex 1.7658780458714787 -1.5357189070664452 0.47000000000000003
    vertex 1.5858780458714787 -1.535718907066446 0.4192820323027552
    vertex 1.5665835694796804 -1.535718907066446 0.4272740661031255
  endloop
endfacet
facet normal -0.0 1.0 -0.0
  outer loop
    vertex 1.7658780458714787 -1.5357189070664452 0.47000000000000003
    vertex 1.5665835694796804 -1.535718907066446 0.4272740661031255
    vertex 1.5458780458714787 -1.535718907066446 0.43000000000000005
  endloop
endfacet
endsolid paddle
